<svg version="1.1" xmlns="http://www.w3.org/2000/svg" xmlns:xlink="http://www.w3.org/1999/xlink" xmlns:ev="http://www.w3.org/2001/xml-events" width="520" height="420" viewBox="-10 -410 520 420"><path d="M 0,10 0,-10 3,10 3,-10 6,10 6,-10 9,10 9,-10 12,10 12,-10 15,10 15,-10 18,10 18,-10 21,10 21,-10 24,10 24,-10 27,10 27,-10 30,10 30,-10 33,10 33,-10 36,10 36,-10 39,10 39,-10 42,10 42,-10 45,10 45,-10 48,10 48,-10 51,10 51,-10 54,10 54,-10 57,10 57,-10 60,10 60,-10 63,10 63,-10 66,10 66,-10 69,10 69,-10 72,10 72,-10 75,10 75,-10 78,10 78,-10 81,10 81,-10 84,10 84,-10 87,10 87,-10 90,10 90,-10 93,10 93,-10 96,10 96,-10 99,10 99,-10 102,10 102,-10 105,10 105,-10 108,10 108,-10 111,10 111,-10 114,10 114,-10 117,10 117,-10 120,10 120,-10 123,10 123,-10 127,10 127,-10 130,10 130,-10 133,10 133,-10 136,10 136,-10 139,10 139,-10 142,10 142,-10 145,10 145,-10 148,10 148,-10 151,10 151,-10 154,10 154,-10 157,10 157,-10 160,10 160,-10 163,10 163,-10 166,10 166,-10 169,10 169,-10 172,10 172,-10 175,10 175,-10 178,10 178,-10 181,10 181,-10 184,10 184,-10 187,10 187,-10 190,10 190,-10 193,10 193,-10 196,10 196,-10 199,10 199,-10 202,10 202,-10 205,10 205,-10 208,10 208,-10 211,10 211,-10 214,10 214,-10 217,10 217,-10 220,10 220,-10 223,10 223,-10 226,10 226,-10 229,10 229,-10 232,10 232,-10 235,10 235,-10 238,10 238,-10 241,10 241,-10 244,10 244,-10 247,10 247,-10 250,10 250,-10 253,10 253,-10 256,10 256,-10 259,10 259,-10 262,10 262,-10 265,10 265,-10 268,10 268,-10 271,10 271,-10 274,10 274,-10 277,10 277,-10 280,10 280,-10 283,10 283,-10 286,10 286,-10 289,10 289,-10 292,10 292,-10 295,10 295,-10 298,10 298,-10 301,10 301,-10 304,10 304,-10 307,10 307,-10 310,10 310,-10 313,10 313,-10 316,10 316,-10 319,10 319,-10 322,10 322,-10 325,10 325,-10 328,10 328,-10 331,10 331,-10 334,10 334,-10 337,10 337,-10 340,10 340,-10 343,10 343,-10 346,10 346,-10 349,10 349,-10 352,10 352,-10 355,10 355,-10 358,10 358,-10 361,10 361,-10 364,10 364,-10 367,10 367,-10 370,10 370,-10 373,10 373,-10 377,10 377,-10 380,10 380,-10 383,10 383,-10 386,10 386,-10 389,10 389,-10 392,10 392,-10 395,10 395,-10 398,10 398,-10 401,10 401,-10 404,10 404,-10 407,10 407,-10 410,10 410,-10 413,10 413,-10 416,10 416,-10 419,10 419,-10 422,10 422,-10 425,10 425,-10 428,10 428,-10 431,10 431,-10 434,10 434,-10 437,10 437,-10 440,10 440,-10 443,10 443,-10 446,10 446,-10 449,10 449,-10 452,10 452,-10 455,10 455,-10 458,10 458,-10 461,10 461,-10 464,10 464,-10 467,10 467,-10 470,10 470,-10 473,10 473,-10 476,10 476,-10 479,10 479,-10 482,10 482,-10 485,10 485,-10 488,10 488,-10 491,10 491,-10 494,10 494,-10 497,10 497,-10 500,10 500,0 510,0 490,0 510,-3 490,-3 510,-6 490,-6 510,-9 490,-9 510,-12 490,-12 510,-15 490,-15 510,-18 490,-18 510,-21 490,-21 510,-24 490,-24 510,-27 490,-27 510,-30 490,-30 510,-33 490,-33 510,-36 490,-36 510,-39 490,-39 510,-42 490,-42 510,-45 490,-45 510,-48 490,-48 510,-51 490,-51 510,-54 490,-54 510,-57 490,-57 510,-60 490,-60 510,-63 490,-63 510,-66 490,-66 510,-69 490,-69 510,-72 490,-72 510,-75 490,-75 510,-78 490,-78 510,-81 490,-81 510,-84 490,-84 510,-87 490,-87 510,-90 490,-90 510,-93 490,-93 510,-96 490,-96 510,-99 490,-99 510,-102 490,-102 510,-105 490,-105 510,-108 490,-108 510,-111 490,-111 510,-114 490,-114 510,-117 490,-117 510,-120 490,-120 510,-123 490,-123 510,-126 490,-126 510,-129 490,-129 510,-132 490,-132 510,-135 490,-135 510,-138 490,-138 510,-141 490,-141 510,-144 490,-144 510,-147 490,-147 510,-150 490,-150 510,-153 490,-153 510,-156 490,-156 510,-159 490,-159 510,-162 490,-162 510,-165 490,-165 510,-168 490,-168 510,-171 490,-171 510,-174 490,-174 510,-177 490,-177 510,-180 490,-180 510,-183 490,-183 510,-186 490,-186 510,-189 490,-189 510,-192 490,-192 510,-195 490,-195 510,-198 490,-198 510,-202 490,-202 510,-205 490,-205 510,-208 490,-208 510,-211 490,-211 510,-214 490,-214 510,-217 490,-217 510,-220 490,-220 510,-223 490,-223 510,-226 490,-226 510,-229 490,-229 510,-232 490,-232 510,-235 490,-235 510,-238 490,-238 510,-241 490,-241 510,-244 490,-244 510,-247 490,-247 510,-250 490,-250 510,-253 490,-253 510,-256 490,-256 510,-259 490,-259 510,-262 490,-262 510,-265 490,-265 510,-268 490,-268 510,-271 490,-271 510,-274 490,-274 510,-277 490,-277 510,-280 490,-280 510,-283 490,-283 510,-286 490,-286 510,-289 490,-289 510,-292 490,-292 510,-295 490,-295 510,-298 490,-298 510,-301 490,-301 510,-304 490,-304 510,-307 490,-307 510,-310 490,-310 510,-313 490,-313 510,-316 490,-316 510,-319 490,-319 510,-322 490,-322 510,-325 490,-325 510,-328 490,-328 510,-331 490,-331 510,-334 490,-334 510,-337 490,-337 510,-340 490,-340 510,-343 490,-343 510,-346 490,-346 510,-349 490,-349 510,-352 490,-352 510,-355 490,-355 510,-358 490,-358 510,-361 490,-361 510,-364 490,-364 510,-367 490,-367 510,-370 490,-370 510,-373 490,-373 510,-376 490,-376 510,-379 490,-379 510,-382 490,-382 510,-385 490,-385 510,-388 490,-388 510,-391 490,-391 510,-394 490,-394 510,-397 490,-397 510,-400 500,-400 500,-410 500,-390 497,-410 497,-390 494,-410 494,-390 491,-410 491,-390 488,-410 488,-390 485,-410 485,-390 482,-410 482,-390 479,-410 479,-390 476,-410 476,-390 473,-410 473,-390 470,-410 470,-390 467,-410 467,-390 464,-410 464,-390 461,-410 461,-390 458,-410 458,-390 455,-410 455,-390 452,-410 452,-390 449,-410 449,-390 446,-410 446,-390 443,-410 443,-390 440,-410 440,-390 437,-410 437,-390 434,-410 434,-390 431,-410 431,-390 428,-410 428,-390 425,-410 425,-390 422,-410 422,-390 419,-410 419,-390 416,-410 416,-390 413,-410 413,-390 410,-410 410,-390 407,-410 407,-390 404,-410 404,-390 401,-410 401,-390 398,-410 398,-390 395,-410 395,-390 392,-410 392,-390 389,-410 389,-390 386,-410 386,-390 383,-410 383,-390 380,-410 380,-390 377,-410 377,-390 373,-410 373,-390 370,-410 370,-390 367,-410 367,-390 364,-410 364,-390 361,-410 361,-390 358,-410 358,-390 355,-410 355,-390 352,-410 352,-390 349,-410 349,-390 346,-410 346,-390 343,-410 343,-390 340,-410 340,-390 337,-410 337,-390 334,-410 334,-390 331,-410 331,-390 328,-410 328,-390 325,-410 325,-390 322,-410 322,-390 319,-410 319,-390 316,-410 316,-390 313,-410 313,-390 310,-410 310,-390 307,-410 307,-390 304,-410 304,-390 301,-410 301,-390 298,-410 298,-390 295,-410 295,-390 292,-410 292,-390 289,-410 289,-390 286,-410 286,-390 283,-410 283,-390 280,-410 280,-390 277,-410 277,-390 274,-410 274,-390 271,-410 271,-390 268,-410 268,-390 265,-410 265,-390 262,-410 262,-390 259,-410 259,-390 256,-410 256,-390 253,-410 253,-390 250,-410 250,-390 247,-410 247,-390 244,-410 244,-390 241,-410 241,-390 238,-410 238,-390 235,-410 235,-390 232,-410 232,-390 229,-410 229,-390 226,-410 226,-390 223,-410 223,-390 220,-410 220,-390 217,-410 217,-390 214,-410 214,-390 211,-410 211,-390 208,-410 208,-390 205,-410 205,-390 202,-410 202,-390 199,-410 199,-390 196,-410 196,-390 193,-410 193,-390 190,-410 190,-390 187,-410 187,-390 184,-410 184,-390 181,-410 181,-390 178,-410 178,-390 175,-410 175,-390 172,-410 172,-390 169,-410 169,-390 166,-410 166,-390 163,-410 163,-390 160,-410 160,-390 157,-410 157,-390 154,-410 154,-390 151,-410 151,-390 148,-410 148,-390 145,-410 145,-390 142,-410 142,-390 139,-410 139,-390 136,-410 136,-390 133,-410 133,-390 130,-410 130,-390 127,-410 127,-390 123,-410 123,-390 120,-410 120,-390 117,-410 117,-390 114,-410 114,-390 111,-410 111,-390 108,-410 108,-390 105,-410 105,-390 102,-410 102,-390 99,-410 99,-390 96,-410 96,-390 93,-410 93,-390 90,-410 90,-390 87,-410 87,-390 84,-410 84,-390 81,-410 81,-390 78,-410 78,-390 75,-410 75,-390 72,-410 72,-390 69,-410 69,-390 66,-410 66,-390 63,-410 63,-390 60,-410 60,-390 57,-410 57,-390 54,-410 54,-390 51,-410 51,-390 48,-410 48,-390 45,-410 45,-390 42,-410 42,-390 39,-410 39,-390 36,-410 36,-390 33,-410 33,-390 30,-410 30,-390 27,-410 27,-390 24,-410 24,-390 21,-410 21,-390 18,-410 18,-390 15,-410 15,-390 12,-410 12,-390 9,-410 9,-390 6,-410 6,-390 3,-410 3,-390 0,-410 0,-400 -10,-400 10,-400 -10,-397 10,-397 -10,-394 10,-394 -10,-391 10,-391 -10,-388 10,-388 -10,-385 10,-385 -10,-382 10,-382 -10,-379 10,-379 -10,-376 10,-376 -10,-373 10,-373 -10,-370 10,-370 -10,-367 10,-367 -10,-364 10,-364 -10,-361 10,-361 -10,-358 10,-358 -10,-355 10,-355 -10,-352 10,-352 -10,-349 10,-349 -10,-346 10,-346 -10,-343 10,-343 -10,-340 10,-340 -10,-337 10,-337 -10,-334 10,-334 -10,-331 10,-331 -10,-328 10,-328 -10,-325 10,-325 -10,-322 10,-322 -10,-319 10,-319 -10,-316 10,-316 -10,-313 10,-313 -10,-310 10,-310 -10,-307 10,-307 -10,-304 10,-304 -10,-301 10,-301 -10,-298 10,-298 -10,-295 10,-295 -10,-292 10,-292 -10,-289 10,-289 -10,-286 10,-286 -10,-283 10,-283 -10,-280 10,-280 -10,-277 10,-277 -10,-274 10,-274 -10,-271 10,-271 -10,-268 10,-268 -10,-265 10,-265 -10,-262 10,-262 -10,-259 10,-259 -10,-256 10,-256 -10,-253 10,-253 -10,-250 10,-250 -10,-247 10,-247 -10,-244 10,-244 -10,-241 10,-241 -10,-238 10,-238 -10,-235 10,-235 -10,-232 10,-232 -10,-229 10,-229 -10,-226 10,-226 -10,-223 10,-223 -10,-220 10,-220 -10,-217 10,-217 -10,-214 10,-214 -10,-211 10,-211 -10,-208 10,-208 -10,-205 10,-205 -10,-202 10,-202 -10,-198 10,-198 -10,-195 10,-195 -10,-192 10,-192 -10,-189 10,-189 -10,-186 10,-186 -10,-183 10,-183 -10,-180 10,-180 -10,-177 10,-177 -10,-174 10,-174 -10,-171 10,-171 -10,-168 10,-168 -10,-165 10,-165 -10,-162 10,-162 -10,-159 10,-159 -10,-156 10,-156 -10,-153 10,-153 -10,-150 10,-150 -10,-147 10,-147 -10,-144 10,-144 -10,-141 10,-141 -10,-138 10,-138 -10,-135 10,-135 -10,-132 10,-132 -10,-129 10,-129 -10,-126 10,-126 -10,-123 10,-123 -10,-120 10,-120 -10,-117 10,-117 -10,-114 10,-114 -10,-111 10,-111 -10,-108 10,-108 -10,-105 10,-105 -10,-102 10,-102 -10,-99 10,-99 -10,-96 10,-96 -10,-93 10,-93 -10,-90 10,-90 -10,-87 10,-87 -10,-84 10,-84 -10,-81 10,-81 -10,-78 10,-78 -10,-75 10,-75 -10,-72 10,-72 -10,-69 10,-69 -10,-66 10,-66 -10,-63 10,-63 -10,-60 10,-60 -10,-57 10,-57 -10,-54 10,-54 -10,-51 10,-51 -10,-48 10,-48 -10,-45 10,-45 -10,-42 10,-42 -10,-39 10,-39 -10,-36 10,-36 -10,-33 10,-33 -10,-30 10,-30 -10,-27 10,-27 -10,-24 10,-24 -10,-21 10,-21 -10,-18 10,-18 -10,-15 10,-15 -10,-12 10,-12 -10,-9 10,-9 -10,-6 10,-6 -10,-3 10,-3 -10,0 0,0 0,0" fill="none" stroke="#812a72" stroke-width="3" /><path d="M 6,-377 14,-383 8,-374 16,-381 10,-372 18,-378 12,-369 20,-376 14,-367 18,-370 13,-369 23,-372 14,-366 24,-369 15,-363 25,-366 16,-360 26,-363 17,-357 27,-360 18,-354 27,-357 19,-351 28,-354 20,-348 29,-351 21,-345 30,-348 21,-342 26,-343 22,-342 31,-345 23,-339 32,-342 24,-335 33,-339 25,-332 34,-336 26,-329 36,-333 27,-326 37,-329 29,-323 38,-326 30,-320 34,-321 30,-318 38,-324 32,-316 40,-321 34,-313 43,-319 36,-310 45,-316 38,-307 43,-310 38,-309 47,-311 39,-306 48,-308 39,-303 49,-305 40,-300 50,-302 41,-296 51,-299 42,-293 51,-296 43,-290 52,-293 43,-287 53,-290 44,-284 54,-287 45,-281 55,-283 46,-278 51,-279 46,-277 55,-281 47,-274 57,-278 48,-271 58,-275 49,-268 59,-272 51,-265 60,-269 52,-262 61,-266 53,-259 62,-263 54,-256 59,-258 54,-255 63,-260 56,-252 65,-257 58,-250 66,-254 59,-247 68,-251 61,-244 70,-248 63,-241 67,-243 62,-241 72,-245 63,-238 73,-242 65,-235 74,-239 66,-233 75,-236 67,-230 76,-233 68,-227 77,-231 69,-224 79,-228 70,-221 75,-223 73,-219 78,-227 75,-217 80,-226 78,-215 83,-224 81,-214 83,-218 88,-217 78,-219 89,-220 79,-222 89,-223 79,-225 90,-226 80,-228 90,-229 81,-231 91,-232 81,-234 92,-235 82,-237 92,-238 82,-240 93,-241 83,-243 93,-244 84,-246 94,-247 84,-249 95,-250 85,-252 95,-253 85,-255 96,-256 86,-258 96,-259 91,-260 96,-258 87,-262 97,-262 88,-265 98,-265 89,-268 100,-268 90,-271 101,-271 91,-275 102,-274 92,-278 103,-277 94,-281 104,-281 99,-282 95,-281 104,-283 95,-278 105,-280 96,-275 106,-277 96,-272 106,-274 97,-269 107,-271 97,-266 107,-268 98,-263 108,-265 99,-260 108,-262 99,-257 109,-258 100,-254 110,-255 100,-250 110,-252 101,-247 111,-249 102,-244 111,-246 102,-241 112,-243 103,-238 108,-239 103,-238 112,-241 104,-235 113,-238 105,-232 114,-235 106,-229 115,-232 106,-226 116,-229 107,-223 117,-226 108,-220 118,-223 109,-217 119,-220 110,-214 120,-217 111,-212 116,-213 112,-210 119,-216 114,-207 122,-214 116,-205 124,-212 118,-203 126,-210 120,-201 124,-204 128,-202 119,-206 130,-204 121,-209 131,-207 122,-212 132,-210 124,-214 134,-213 125,-217 135,-215 126,-220 136,-218 132,-220 129,-217 136,-224 131,-214 138,-221 134,-211 141,-218 137,-209 140,-212 144,-209 136,-215 146,-213 138,-218 148,-216 140,-221 150,-219 142,-224 152,-222 148,-225 152,-222 144,-227 154,-225 146,-230 157,-228 148,-233 159,-231 150,-236 161,-234 156,-237 160,-233 153,-240 162,-236 155,-242 164,-238 157,-245 166,-241 159,-247 168,-243 165,-246 160,-245 169,-248 160,-242 170,-245 161,-239 171,-242 162,-236 172,-239 163,-233 172,-236 163,-231 173,-233 164,-228 174,-230 165,-225 175,-227 166,-222 175,-224 166,-219 176,-221 167,-216 177,-218 168,-213 173,-214 175,-210 170,-219 178,-212 173,-220 181,-213 176,-222 183,-215 181,-219 178,-215 184,-223 181,-213 187,-221 183,-211 189,-219 186,-209 189,-213 185,-209 193,-216 188,-207 195,-213 191,-204 198,-210 193,-201 197,-204 193,-201 201,-207 195,-198 203,-204 197,-196 205,-202 199,-193 207,-199 201,-190 205,-193 208,-189 203,-198 210,-190 206,-199 213,-192 208,-201 216,-193 213,-198 217,-194 210,-201 220,-197 212,-204 222,-200 215,-207 225,-203 222,-206 218,-202 225,-210 221,-200 227,-208 224,-198 230,-206 226,-196 230,-200 231,-195 228,-204 236,-196 232,-206 240,-198 238,-203 241,-199 234,-206 244,-202 237,-209 247,-205 240,-212 249,-207 246,-211 251,-210 241,-212 251,-213 242,-215 252,-216 242,-218 253,-219 243,-221 253,-222 243,-224 254,-225 244,-227 254,-228 245,-230 255,-231 245,-232 255,-234 246,-235 256,-236 246,-238 257,-239 247,-241 257,-242 247,-244 258,-245 248,-247 258,-248 249,-250 259,-251 254,-252 259,-251 249,-253 260,-254 250,-256 260,-257 250,-259 261,-261 251,-262 261,-264 251,-265 262,-267 252,-268 262,-270 252,-272 263,-273 253,-275 263,-276 253,-278 264,-279 254,-281 264,-282 255,-284 265,-285 255,-287 266,-288 256,-290 266,-291 256,-293 267,-294 257,-296 267,-297 262,-298 266,-295 258,-301 268,-298 260,-304 270,-301 262,-307 272,-304 264,-310 274,-307 270,-310 266,-307 275,-312 268,-304 276,-309 269,-301 278,-306 271,-298 280,-303 272,-295 281,-300 274,-292 278,-294 274,-293 283,-296 275,-290 284,-293 276,-287 285,-290 277,-284 287,-287 278,-281 288,-284 280,-278 289,-282 281,-275 290,-279 282,-272 287,-274 283,-270 290,-277 286,-268 293,-275 289,-265 296,-272 291,-262 295,-266 292,-262 298,-270 294,-260 300,-268 297,-258 303,-266 300,-256 303,-260 307,-256 299,-263 309,-259 301,-265 311,-261 303,-268 313,-263 305,-270 315,-265 311,-269 307,-265 315,-272 310,-263 317,-269 313,-260 320,-267 316,-257 319,-260 317,-256 321,-265 320,-254 324,-263 322,-253 327,-262 325,-252 327,-256 324,-253 331,-260 327,-250 333,-257 329,-248 336,-255 332,-245 335,-248 331,-247 340,-250 332,-244 341,-247 332,-241 342,-244 333,-238 343,-241 334,-235 344,-238 335,-232 345,-235 336,-229 346,-232 337,-226 347,-229 338,-223 347,-225 339,-220 344,-221 339,-218 348,-224 341,-216 349,-221 343,-213 351,-218 344,-210 353,-215 346,-207 354,-212 347,-205 352,-207 347,-205 356,-210 349,-202 358,-206 351,-199 359,-203 352,-196 361,-200 354,-193 363,-197 355,-190 360,-192 364,-189 355,-194 366,-192 357,-197 367,-195 359,-200 369,-198 360,-203 371,-201 362,-206 372,-204 368,-207 367,-202 368,-212 372,-201 373,-211 376,-201 376,-206 380,-203 372,-209 382,-205 374,-211 384,-207 376,-214 386,-210 378,-216 388,-212 384,-215 383,-211 386,-220 387,-209 390,-219 391,-208 392,-212 392,-207 393,-217 396,-207 397,-217 400,-206 401,-211 396,-209 405,-214 398,-206 407,-210 399,-203 408,-207 401,-200 410,-204 403,-196 411,-201 404,-193 409,-196 405,-193 413,-199 407,-190 415,-196 409,-187 417,-193 411,-185 419,-191 413,-182 417,-185 412,-183 421,-187 413,-181 423,-184 414,-178 424,-181 415,-175 425,-178 416,-172 426,-175 417,-169 427,-172 418,-166 428,-170 419,-163 429,-167 420,-160 425,-162 426,-157 424,-167 430,-158 428,-168 434,-159 433,-164 429,-160 437,-167 431,-158 439,-165 433,-156 441,-163 435,-154 443,-160 437,-151 441,-155 445,-151 437,-158 447,-154 439,-160 449,-156 442,-163 451,-158 444,-165 453,-161 449,-164 450,-159 449,-169 454,-159 453,-169 458,-160 457,-165 456,-160 459,-169 460,-158 463,-168 464,-157 466,-162 461,-160 470,-164 462,-156 472,-160 464,-153 473,-157 465,-150 474,-154 466,-147 476,-151 468,-144 477,-148 469,-141 474,-143 471,-139 476,-147 474,-137 479,-146 477,-136 482,-144 479,-134 482,-138" fill="none" stroke="#812a72" stroke-width="3" /><path d="M 189,-362 181,-368 191,-365 183,-370 192,-367 184,-373 194,-370 186,-375 196,-372 188,-378 197,-375 189,-380 199,-377 195,-380 190,-380 200,-380 190,-377 200,-377 190,-374 200,-374 190,-371 200,-371 190,-368 200,-368 190,-364 200,-364 190,-361 200,-361 190,-358 200,-358 190,-355 200,-355 190,-352 200,-352 190,-349 200,-349 190,-346 200,-346 190,-343 200,-343 190,-339 200,-339 190,-336 200,-336 190,-333 200,-333 190,-330 195,-330 195,-335 195,-325 192,-335 192,-325 189,-335 189,-325 186,-335 186,-325 183,-335 183,-330 183,-325 182,-335 186,-325 186,-335 189,-325 189,-335 192,-325 192,-335 195,-325 195,-335 198,-325 198,-335 201,-325 201,-335 204,-325 204,-335 207,-325 208,-330" fill="none" stroke="#812a72" stroke-width="3" /><path d="M 234,-333 241,-340 237,-330 244,-337 240,-326 244,-330 244,-325 244,-335 247,-325 247,-335 250,-325 250,-335 253,-325 253,-335 256,-325 256,-335 259,-325 259,-335 262,-325 262,-335 266,-325 266,-335 269,-325 269,-330 272,-326 265,-334 275,-330 268,-337 279,-333 275,-336 280,-336 270,-336 280,-339 270,-339 280,-342 270,-342 280,-346 270,-346 280,-349 270,-349 280,-352 270,-352 280,-355 270,-355 280,-358 270,-358 280,-361 270,-361 280,-364 270,-364 280,-367 270,-367 280,-371 270,-371 280,-374 275,-374 279,-377 271,-370 275,-380 268,-373 272,-384 269,-380 269,-385 269,-375 266,-385 266,-375 263,-385 263,-375 259,-385 259,-375 256,-385 256,-375 253,-385 253,-375 250,-385 250,-375 247,-385 247,-375 244,-385 244,-380 240,-384 247,-376 237,-380 244,-373 234,-377 238,-374 233,-374 243,-374 233,-370 243,-370 233,-367 243,-367 233,-364 238,-364 234,-360 241,-367 237,-357 244,-364 240,-354 244,-358 244,-353 244,-363 247,-353 247,-363 250,-353 250,-363 253,-353 253,-363 256,-353 256,-363 259,-353 259,-363 262,-353 262,-363 266,-353 266,-363 269,-353 269,-358 273,-356 264,-359 275,-359 265,-362 276,-362 266,-365 277,-365 267,-368 278,-368 268,-372 279,-372 269,-375 280,-375 275,-376" fill="none" stroke="#812a72" stroke-width="3" /><path d="M 301,-333 309,-340 305,-330 312,-337 308,-326 311,-330 311,-325 311,-335 314,-325 314,-335 317,-325 317,-335 321,-325 321,-335 324,-325 324,-335 327,-325 327,-335 330,-325 330,-335 333,-325 333,-335 336,-325 336,-330 340,-326 333,-334 343,-330 336,-337 346,-333 343,-336 348,-336 338,-336 348,-339 338,-339 348,-342 338,-342 348,-346 338,-346 348,-349 338,-349 348,-352 338,-352 348,-355 338,-355 348,-358 338,-358 348,-361 338,-361 348,-364 338,-364 348,-367 338,-367 348,-371 338,-371 348,-374 343,-374 346,-377 339,-370 343,-380 336,-373 340,-384 336,-380 336,-385 336,-375 333,-385 333,-375 330,-385 330,-375 327,-385 327,-375 324,-385 324,-375 321,-385 321,-375 318,-385 318,-375 314,-385 314,-375 311,-385 311,-380 308,-384 315,-376 305,-380 312,-373 301,-377 305,-374 300,-374 310,-374 300,-370 310,-370 300,-367 310,-367 300,-364 305,-364 301,-360 309,-367 305,-357 312,-364 308,-354 311,-358 311,-353 311,-363 314,-353 314,-363 317,-353 317,-363 321,-353 321,-363 324,-353 324,-363 327,-353 327,-363 330,-353 330,-363 333,-353 333,-363 336,-353 336,-358 341,-356 332,-359 342,-359 333,-362 343,-362 334,-365 344,-365 335,-368 345,-368 336,-372 346,-372 337,-375 347,-375 343,-376" fill="none" stroke="#812a72" stroke-width="3" /><path d="M 377,-373 368,-375 378,-376 368,-378 379,-379 374,-380 374,-375 374,-385 377,-375 377,-385 380,-375 380,-385 383,-375 383,-385 386,-375 386,-385 389,-375 389,-385 392,-375 392,-385 396,-375 396,-385 399,-375 399,-380 395,-376 402,-384 398,-373 405,-380 401,-370 405,-374 401,-377 409,-370 399,-375 407,-368 397,-372 405,-366 395,-370 403,-364 393,-368 401,-361 391,-365 399,-359 389,-363 397,-357 387,-361 395,-354 385,-359 393,-352 383,-356 391,-350 381,-354 389,-347 379,-352 387,-345 378,-349 385,-343 376,-347 383,-341 374,-345 381,-338 372,-342 379,-336 370,-340 377,-334 368,-338 375,-331 366,-336 373,-329 364,-333 368,-330 368,-325 367,-335 371,-325 371,-335 374,-325 374,-335 377,-325 377,-335 380,-325 380,-335 383,-325 383,-335 386,-325 386,-335 389,-325 389,-335 392,-325 392,-335 396,-325 396,-335 399,-325 399,-335 402,-325 402,-335 405,-325 405,-330" fill="none" stroke="#812a72" stroke-width="3" /></svg>