<svg version="1.1" xmlns="http://www.w3.org/2000/svg" xmlns:xlink="http://www.w3.org/1999/xlink" xmlns:ev="http://www.w3.org/2001/xml-events" width="520" height="420" viewBox="-10 -410 520 420"><path d="M 0,10 0,-10 3,10 3,-10 6,10 6,-10 9,10 9,-10 12,10 12,-10 15,10 15,-10 18,10 18,-10 21,10 21,-10 24,10 24,-10 27,10 27,-10 30,10 30,-10 33,10 33,-10 36,10 36,-10 39,10 39,-10 42,10 42,-10 45,10 45,-10 48,10 48,-10 51,10 51,-10 54,10 54,-10 57,10 57,-10 60,10 60,-10 63,10 63,-10 66,10 66,-10 69,10 69,-10 72,10 72,-10 75,10 75,-10 78,10 78,-10 81,10 81,-10 84,10 84,-10 87,10 87,-10 90,10 90,-10 93,10 93,-10 96,10 96,-10 99,10 99,-10 102,10 102,-10 105,10 105,-10 108,10 108,-10 111,10 111,-10 114,10 114,-10 117,10 117,-10 120,10 120,-10 123,10 123,-10 127,10 127,-10 130,10 130,-10 133,10 133,-10 136,10 136,-10 139,10 139,-10 142,10 142,-10 145,10 145,-10 148,10 148,-10 151,10 151,-10 154,10 154,-10 157,10 157,-10 160,10 160,-10 163,10 163,-10 166,10 166,-10 169,10 169,-10 172,10 172,-10 175,10 175,-10 178,10 178,-10 181,10 181,-10 184,10 184,-10 187,10 187,-10 190,10 190,-10 193,10 193,-10 196,10 196,-10 199,10 199,-10 202,10 202,-10 205,10 205,-10 208,10 208,-10 211,10 211,-10 214,10 214,-10 217,10 217,-10 220,10 220,-10 223,10 223,-10 226,10 226,-10 229,10 229,-10 232,10 232,-10 235,10 235,-10 238,10 238,-10 241,10 241,-10 244,10 244,-10 247,10 247,-10 250,10 250,-10 253,10 253,-10 256,10 256,-10 259,10 259,-10 262,10 262,-10 265,10 265,-10 268,10 268,-10 271,10 271,-10 274,10 274,-10 277,10 277,-10 280,10 280,-10 283,10 283,-10 286,10 286,-10 289,10 289,-10 292,10 292,-10 295,10 295,-10 298,10 298,-10 301,10 301,-10 304,10 304,-10 307,10 307,-10 310,10 310,-10 313,10 313,-10 316,10 316,-10 319,10 319,-10 322,10 322,-10 325,10 325,-10 328,10 328,-10 331,10 331,-10 334,10 334,-10 337,10 337,-10 340,10 340,-10 343,10 343,-10 346,10 346,-10 349,10 349,-10 352,10 352,-10 355,10 355,-10 358,10 358,-10 361,10 361,-10 364,10 364,-10 367,10 367,-10 370,10 370,-10 373,10 373,-10 377,10 377,-10 380,10 380,-10 383,10 383,-10 386,10 386,-10 389,10 389,-10 392,10 392,-10 395,10 395,-10 398,10 398,-10 401,10 401,-10 404,10 404,-10 407,10 407,-10 410,10 410,-10 413,10 413,-10 416,10 416,-10 419,10 419,-10 422,10 422,-10 425,10 425,-10 428,10 428,-10 431,10 431,-10 434,10 434,-10 437,10 437,-10 440,10 440,-10 443,10 443,-10 446,10 446,-10 449,10 449,-10 452,10 452,-10 455,10 455,-10 458,10 458,-10 461,10 461,-10 464,10 464,-10 467,10 467,-10 470,10 470,-10 473,10 473,-10 476,10 476,-10 479,10 479,-10 482,10 482,-10 485,10 485,-10 488,10 488,-10 491,10 491,-10 494,10 494,-10 497,10 497,-10 500,10 500,0 510,0 490,0 510,-3 490,-3 510,-6 490,-6 510,-9 490,-9 510,-12 490,-12 510,-15 490,-15 510,-18 490,-18 510,-21 490,-21 510,-24 490,-24 510,-27 490,-27 510,-30 490,-30 510,-33 490,-33 510,-36 490,-36 510,-39 490,-39 510,-42 490,-42 510,-45 490,-45 510,-48 490,-48 510,-51 490,-51 510,-54 490,-54 510,-57 490,-57 510,-60 490,-60 510,-63 490,-63 510,-66 490,-66 510,-69 490,-69 510,-72 490,-72 510,-75 490,-75 510,-78 490,-78 510,-81 490,-81 510,-84 490,-84 510,-87 490,-87 510,-90 490,-90 510,-93 490,-93 510,-96 490,-96 510,-99 490,-99 510,-102 490,-102 510,-105 490,-105 510,-108 490,-108 510,-111 490,-111 510,-114 490,-114 510,-117 490,-117 510,-120 490,-120 510,-123 490,-123 510,-126 490,-126 510,-129 490,-129 510,-132 490,-132 510,-135 490,-135 510,-138 490,-138 510,-141 490,-141 510,-144 490,-144 510,-147 490,-147 510,-150 490,-150 510,-153 490,-153 510,-156 490,-156 510,-159 490,-159 510,-162 490,-162 510,-165 490,-165 510,-168 490,-168 510,-171 490,-171 510,-174 490,-174 510,-177 490,-177 510,-180 490,-180 510,-183 490,-183 510,-186 490,-186 510,-189 490,-189 510,-192 490,-192 510,-195 490,-195 510,-198 490,-198 510,-202 490,-202 510,-205 490,-205 510,-208 490,-208 510,-211 490,-211 510,-214 490,-214 510,-217 490,-217 510,-220 490,-220 510,-223 490,-223 510,-226 490,-226 510,-229 490,-229 510,-232 490,-232 510,-235 490,-235 510,-238 490,-238 510,-241 490,-241 510,-244 490,-244 510,-247 490,-247 510,-250 490,-250 510,-253 490,-253 510,-256 490,-256 510,-259 490,-259 510,-262 490,-262 510,-265 490,-265 510,-268 490,-268 510,-271 490,-271 510,-274 490,-274 510,-277 490,-277 510,-280 490,-280 510,-283 490,-283 510,-286 490,-286 510,-289 490,-289 510,-292 490,-292 510,-295 490,-295 510,-298 490,-298 510,-301 490,-301 510,-304 490,-304 510,-307 490,-307 510,-310 490,-310 510,-313 490,-313 510,-316 490,-316 510,-319 490,-319 510,-322 490,-322 510,-325 490,-325 510,-328 490,-328 510,-331 490,-331 510,-334 490,-334 510,-337 490,-337 510,-340 490,-340 510,-343 490,-343 510,-346 490,-346 510,-349 490,-349 510,-352 490,-352 510,-355 490,-355 510,-358 490,-358 510,-361 490,-361 510,-364 490,-364 510,-367 490,-367 510,-370 490,-370 510,-373 490,-373 510,-376 490,-376 510,-379 490,-379 510,-382 490,-382 510,-385 490,-385 510,-388 490,-388 510,-391 490,-391 510,-394 490,-394 510,-397 490,-397 510,-400 500,-400 500,-410 500,-390 497,-410 497,-390 494,-410 494,-390 491,-410 491,-390 488,-410 488,-390 485,-410 485,-390 482,-410 482,-390 479,-410 479,-390 476,-410 476,-390 473,-410 473,-390 470,-410 470,-390 467,-410 467,-390 464,-410 464,-390 461,-410 461,-390 458,-410 458,-390 455,-410 455,-390 452,-410 452,-390 449,-410 449,-390 446,-410 446,-390 443,-410 443,-390 440,-410 440,-390 437,-410 437,-390 434,-410 434,-390 431,-410 431,-390 428,-410 428,-390 425,-410 425,-390 422,-410 422,-390 419,-410 419,-390 416,-410 416,-390 413,-410 413,-390 410,-410 410,-390 407,-410 407,-390 404,-410 404,-390 401,-410 401,-390 398,-410 398,-390 395,-410 395,-390 392,-410 392,-390 389,-410 389,-390 386,-410 386,-390 383,-410 383,-390 380,-410 380,-390 377,-410 377,-390 373,-410 373,-390 370,-410 370,-390 367,-410 367,-390 364,-410 364,-390 361,-410 361,-390 358,-410 358,-390 355,-410 355,-390 352,-410 352,-390 349,-410 349,-390 346,-410 346,-390 343,-410 343,-390 340,-410 340,-390 337,-410 337,-390 334,-410 334,-390 331,-410 331,-390 328,-410 328,-390 325,-410 325,-390 322,-410 322,-390 319,-410 319,-390 316,-410 316,-390 313,-410 313,-390 310,-410 310,-390 307,-410 307,-390 304,-410 304,-390 301,-410 301,-390 298,-410 298,-390 295,-410 295,-390 292,-410 292,-390 289,-410 289,-390 286,-410 286,-390 283,-410 283,-390 280,-410 280,-390 277,-410 277,-390 274,-410 274,-390 271,-410 271,-390 268,-410 268,-390 265,-410 265,-390 262,-410 262,-390 259,-410 259,-390 256,-410 256,-390 253,-410 253,-390 250,-410 250,-390 247,-410 247,-390 244,-410 244,-390 241,-410 241,-390 238,-410 238,-390 235,-410 235,-390 232,-410 232,-390 229,-410 229,-390 226,-410 226,-390 223,-410 223,-390 220,-410 220,-390 217,-410 217,-390 214,-410 214,-390 211,-410 211,-390 208,-410 208,-390 205,-410 205,-390 202,-410 202,-390 199,-410 199,-390 196,-410 196,-390 193,-410 193,-390 190,-410 190,-390 187,-410 187,-390 184,-410 184,-390 181,-410 181,-390 178,-410 178,-390 175,-410 175,-390 172,-410 172,-390 169,-410 169,-390 166,-410 166,-390 163,-410 163,-390 160,-410 160,-390 157,-410 157,-390 154,-410 154,-390 151,-410 151,-390 148,-410 148,-390 145,-410 145,-390 142,-410 142,-390 139,-410 139,-390 136,-410 136,-390 133,-410 133,-390 130,-410 130,-390 127,-410 127,-390 123,-410 123,-390 120,-410 120,-390 117,-410 117,-390 114,-410 114,-390 111,-410 111,-390 108,-410 108,-390 105,-410 105,-390 102,-410 102,-390 99,-410 99,-390 96,-410 96,-390 93,-410 93,-390 90,-410 90,-390 87,-410 87,-390 84,-410 84,-390 81,-410 81,-390 78,-410 78,-390 75,-410 75,-390 72,-410 72,-390 69,-410 69,-390 66,-410 66,-390 63,-410 63,-390 60,-410 60,-390 57,-410 57,-390 54,-410 54,-390 51,-410 51,-390 48,-410 48,-390 45,-410 45,-390 42,-410 42,-390 39,-410 39,-390 36,-410 36,-390 33,-410 33,-390 30,-410 30,-390 27,-410 27,-390 24,-410 24,-390 21,-410 21,-390 18,-410 18,-390 15,-410 15,-390 12,-410 12,-390 9,-410 9,-390 6,-410 6,-390 3,-410 3,-390 0,-410 0,-400 -10,-400 10,-400 -10,-397 10,-397 -10,-394 10,-394 -10,-391 10,-391 -10,-388 10,-388 -10,-385 10,-385 -10,-382 10,-382 -10,-379 10,-379 -10,-376 10,-376 -10,-373 10,-373 -10,-370 10,-370 -10,-367 10,-367 -10,-364 10,-364 -10,-361 10,-361 -10,-358 10,-358 -10,-355 10,-355 -10,-352 10,-352 -10,-349 10,-349 -10,-346 10,-346 -10,-343 10,-343 -10,-340 10,-340 -10,-337 10,-337 -10,-334 10,-334 -10,-331 10,-331 -10,-328 10,-328 -10,-325 10,-325 -10,-322 10,-322 -10,-319 10,-319 -10,-316 10,-316 -10,-313 10,-313 -10,-310 10,-310 -10,-307 10,-307 -10,-304 10,-304 -10,-301 10,-301 -10,-298 10,-298 -10,-295 10,-295 -10,-292 10,-292 -10,-289 10,-289 -10,-286 10,-286 -10,-283 10,-283 -10,-280 10,-280 -10,-277 10,-277 -10,-274 10,-274 -10,-271 10,-271 -10,-268 10,-268 -10,-265 10,-265 -10,-262 10,-262 -10,-259 10,-259 -10,-256 10,-256 -10,-253 10,-253 -10,-250 10,-250 -10,-247 10,-247 -10,-244 10,-244 -10,-241 10,-241 -10,-238 10,-238 -10,-235 10,-235 -10,-232 10,-232 -10,-229 10,-229 -10,-226 10,-226 -10,-223 10,-223 -10,-220 10,-220 -10,-217 10,-217 -10,-214 10,-214 -10,-211 10,-211 -10,-208 10,-208 -10,-205 10,-205 -10,-202 10,-202 -10,-198 10,-198 -10,-195 10,-195 -10,-192 10,-192 -10,-189 10,-189 -10,-186 10,-186 -10,-183 10,-183 -10,-180 10,-180 -10,-177 10,-177 -10,-174 10,-174 -10,-171 10,-171 -10,-168 10,-168 -10,-165 10,-165 -10,-162 10,-162 -10,-159 10,-159 -10,-156 10,-156 -10,-153 10,-153 -10,-150 10,-150 -10,-147 10,-147 -10,-144 10,-144 -10,-141 10,-141 -10,-138 10,-138 -10,-135 10,-135 -10,-132 10,-132 -10,-129 10,-129 -10,-126 10,-126 -10,-123 10,-123 -10,-120 10,-120 -10,-117 10,-117 -10,-114 10,-114 -10,-111 10,-111 -10,-108 10,-108 -10,-105 10,-105 -10,-102 10,-102 -10,-99 10,-99 -10,-96 10,-96 -10,-93 10,-93 -10,-90 10,-90 -10,-87 10,-87 -10,-84 10,-84 -10,-81 10,-81 -10,-78 10,-78 -10,-75 10,-75 -10,-72 10,-72 -10,-69 10,-69 -10,-66 10,-66 -10,-63 10,-63 -10,-60 10,-60 -10,-57 10,-57 -10,-54 10,-54 -10,-51 10,-51 -10,-48 10,-48 -10,-45 10,-45 -10,-42 10,-42 -10,-39 10,-39 -10,-36 10,-36 -10,-33 10,-33 -10,-30 10,-30 -10,-27 10,-27 -10,-24 10,-24 -10,-21 10,-21 -10,-18 10,-18 -10,-15 10,-15 -10,-12 10,-12 -10,-9 10,-9 -10,-6 10,-6 -10,-3 10,-3 -10,0 0,0 0,0" fill="none" stroke="#5bd658" stroke-width="3" /><path d="M 110,-300 90,-300 110,-303 90,-303 110,-306 90,-306 110,-309 90,-309 110,-313 90,-312 110,-316 90,-316 110,-319 90,-319 110,-322 90,-322 110,-325 90,-325 110,-328 90,-328 110,-331 90,-331 110,-334 90,-334 110,-338 90,-337 110,-341 90,-341 110,-344 90,-344 110,-347 90,-347 110,-350 100,-350 92,-344 108,-356 94,-341 110,-354 96,-339 112,-351 98,-336 114,-349 100,-334 116,-346 102,-331 118,-344 104,-329 120,-341 106,-326 122,-339 108,-324 124,-336 110,-321 126,-334 112,-319 120,-325 128,-319 112,-331 130,-321 114,-334 132,-324 116,-336 134,-326 118,-339 136,-329 120,-341 138,-331 122,-344 140,-334 124,-346 142,-336 126,-349 144,-339 128,-351 146,-341 130,-354 148,-344 140,-350 130,-350 150,-350 130,-347 150,-347 130,-344 150,-344 130,-341 150,-341 130,-337 150,-338 130,-334 150,-334 130,-331 150,-331 130,-328 150,-328 130,-325 150,-325 130,-322 150,-322 130,-319 150,-319 130,-316 150,-316 130,-312 150,-313 130,-309 150,-309 130,-306 150,-306 130,-303 150,-303 130,-300 140,-300" fill="none" stroke="#5bd658" stroke-width="3" /><path d="M 160,-350 180,-350 160,-347 180,-347 160,-344 180,-344 160,-341 180,-341 160,-337 180,-338 160,-334 180,-334 160,-331 180,-331 160,-328 180,-328 160,-325 180,-325 160,-322 180,-322 160,-319 180,-319 160,-316 180,-316 160,-312 180,-313 160,-309 180,-309 160,-306 180,-306 160,-303 180,-303 160,-300 170,-300 170,-290 170,-310 173,-290 173,-310 176,-290 176,-310 179,-290 179,-310 182,-290 182,-310 185,-290 185,-310 188,-290 188,-310 191,-290 191,-310 194,-290 194,-310 197,-290 197,-310 200,-290 200,-300" fill="none" stroke="#5bd658" stroke-width="3" /><path d="M 50,-240 50,-260 53,-240 53,-260 57,-240 57,-260 60,-240 60,-260 63,-240 63,-260 67,-240 67,-260 70,-240 70,-250 60,-250 80,-250 60,-247 80,-247 60,-244 80,-244 60,-241 80,-241 60,-237 80,-238 60,-234 80,-234 60,-231 80,-231 60,-228 80,-228 60,-225 80,-225 60,-222 80,-222 60,-219 80,-219 60,-216 80,-216 60,-212 80,-213 60,-209 80,-209 60,-206 80,-206 60,-203 80,-203 60,-200 70,-200 80,-200 60,-200 80,-203 60,-203 80,-206 60,-206 80,-209 60,-209 80,-213 60,-212 80,-216 60,-216 80,-219 60,-219 80,-222 60,-222 80,-225 60,-225 80,-228 60,-228 80,-231 60,-231 80,-234 60,-234 80,-238 60,-237 80,-241 60,-241 80,-244 60,-244 80,-247 60,-247 80,-250 70,-250 70,-240 70,-260 73,-240 73,-260 77,-240 77,-260 80,-240 80,-260 83,-240 83,-260 87,-240 87,-260 90,-240 90,-250" fill="none" stroke="#5bd658" stroke-width="3" /><path d="M 110,-250 130,-250 110,-247 130,-247 110,-244 130,-244 110,-241 130,-241 110,-237 130,-238 110,-234 130,-234 110,-231 130,-231 110,-228 130,-228 110,-225 130,-225 110,-222 130,-222 110,-219 130,-219 110,-216 130,-216 110,-212 130,-213 110,-209 130,-209 110,-206 120,-206 113,-199 127,-213 116,-196 130,-210 119,-193 126,-200 126,-190 126,-210 129,-190 129,-210 133,-190 132,-210 136,-190 136,-210 139,-190 139,-210 142,-190 142,-210 145,-190 145,-210 148,-190 148,-210 151,-190 151,-200 158,-193 144,-207 161,-196 147,-210 165,-199 158,-206 168,-206 148,-206 168,-209 148,-209 168,-213 148,-212 168,-216 148,-216 168,-219 148,-219 168,-222 148,-222 168,-225 148,-225 168,-228 148,-228 168,-231 148,-231 168,-234 148,-234 168,-238 148,-237 168,-241 148,-241 168,-244 148,-244 168,-247 148,-247 168,-250 158,-250" fill="none" stroke="#5bd658" stroke-width="3" /><path d="M 198,-200 178,-200 198,-203 178,-203 198,-206 178,-206 198,-209 178,-209 198,-213 178,-212 198,-216 178,-216 198,-219 178,-219 198,-222 178,-222 198,-225 178,-225 198,-228 178,-228 198,-231 178,-231 198,-234 178,-234 198,-238 178,-237 198,-241 178,-241 198,-244 178,-244 198,-247 178,-247 198,-250 188,-250 188,-240 187,-260 191,-240 191,-260 194,-240 194,-260 197,-240 197,-260 200,-240 200,-260 203,-240 203,-260 206,-240 206,-260 209,-240 209,-260 213,-240 212,-260 216,-240 216,-260 219,-240 219,-250 212,-243 226,-257 215,-240 229,-254 218,-237 225,-244 215,-244 235,-244 215,-241 235,-241 215,-237 235,-238 215,-234 235,-234 215,-231 225,-231 218,-238 232,-224 215,-235 229,-221 212,-232 219,-225 219,-235 219,-215 216,-235 216,-215 212,-235 213,-215 209,-235 209,-215 206,-235 206,-215 203,-235 203,-215 200,-235 200,-215 197,-235 197,-215 194,-235 194,-215 191,-235 191,-215 187,-235 188,-225 182,-217 193,-233 184,-215 196,-232 187,-213 198,-230 189,-212 201,-228 192,-210 203,-227 194,-208 206,-225 197,-207 208,-223 199,-205 211,-222 202,-203 213,-220 204,-202 216,-218 207,-200 218,-217 209,-198 221,-215 212,-197 223,-213 214,-195 226,-212 217,-193 228,-210 219,-192 225,-200" fill="none" stroke="#5bd658" stroke-width="3" /><path d="M 255,-240 255,-260 258,-240 258,-260 262,-240 262,-260 265,-240 265,-260 268,-240 268,-260 272,-240 272,-260 275,-240 275,-250 265,-250 285,-250 265,-247 285,-247 265,-244 285,-244 265,-241 285,-241 265,-237 285,-238 265,-234 285,-234 265,-231 285,-231 265,-228 285,-228 265,-225 285,-225 265,-222 285,-222 265,-219 285,-219 265,-216 285,-216 265,-212 285,-213 265,-209 285,-209 265,-206 285,-206 265,-203 285,-203 265,-200 275,-200 285,-200 265,-200 285,-203 265,-203 285,-206 265,-206 285,-209 265,-209 285,-213 265,-212 285,-216 265,-216 285,-219 265,-219 285,-222 265,-222 285,-225 265,-225 285,-228 265,-228 285,-231 265,-231 285,-234 265,-234 285,-238 265,-237 285,-241 265,-241 285,-244 265,-244 285,-247 265,-247 285,-250 275,-250 275,-240 275,-260 278,-240 278,-260 282,-240 282,-260 285,-240 285,-260 288,-240 288,-260 292,-240 292,-260 295,-240 295,-250" fill="none" stroke="#5bd658" stroke-width="3" /><path d="M 334,-196 316,-204 335,-198 317,-207 337,-201 319,-210 338,-204 320,-213 339,-207 322,-216 341,-209 323,-218 342,-212 324,-221 344,-215 326,-224 345,-218 327,-227 346,-221 329,-229 348,-223 330,-232 349,-226 331,-235 351,-229 333,-238 352,-232 334,-241 353,-234 336,-243 355,-237 337,-246 356,-240 338,-249 358,-243 340,-252 359,-246 350,-250 341,-246 359,-254 342,-243 360,-252 344,-240 362,-249 345,-237 363,-246 347,-234 364,-243 348,-232 366,-241 349,-229 367,-238 351,-226 369,-235 352,-223 370,-232 354,-221 363,-225 362,-235 363,-215 359,-235 359,-215 356,-235 356,-215 353,-235 353,-215 350,-235 350,-215 347,-235 347,-215 344,-235 344,-215 341,-235 341,-215 337,-235 338,-225 338,-215 337,-235 341,-215 341,-235 344,-215 344,-235 347,-215 347,-235 350,-215 350,-235 353,-215 353,-235 356,-215 356,-235 359,-215 359,-235 363,-215 363,-225 354,-221 371,-229 355,-218 373,-227 356,-215 374,-224 358,-212 376,-221 359,-209 377,-218 361,-207 378,-216 362,-204 380,-213 363,-201 381,-210 365,-198 383,-207 366,-196 375,-200" fill="none" stroke="#5bd658" stroke-width="3" /><path d="M 450,-245 435,-230 447,-247 433,-233 445,-250 430,-235 442,-252 428,-238 440,-255 425,-240 437,-257 430,-250 430,-260 430,-240 427,-260 427,-240 424,-260 424,-240 421,-260 421,-240 417,-260 418,-240 414,-260 414,-240 411,-260 411,-240 408,-260 408,-240 405,-260 405,-250 398,-257 412,-243 395,-254 409,-240 392,-251 399,-244 389,-244 409,-244 389,-241 409,-241 389,-237 409,-238 389,-234 409,-234 389,-231 409,-231 389,-228 409,-228 389,-225 409,-225 389,-222 409,-222 389,-219 409,-219 389,-216 409,-216 389,-212 409,-213 389,-209 409,-209 389,-206 399,-206 392,-199 406,-213 395,-196 409,-210 398,-193 405,-200 405,-190 405,-210 408,-190 408,-210 411,-190 411,-210 414,-190 414,-210 418,-190 417,-210 421,-190 421,-210 424,-190 424,-210 427,-190 427,-210 430,-190 430,-200 437,-193 423,-207 440,-195 425,-210 442,-198 428,-212 445,-200 430,-215 447,-203 433,-217 450,-205 443,-213" fill="none" stroke="#5bd658" stroke-width="3" /><path d="M 110,-100 90,-100 110,-103 90,-103 110,-106 90,-106 110,-109 90,-109 110,-113 90,-112 110,-116 90,-116 110,-119 90,-119 110,-122 90,-122 110,-125 90,-125 110,-128 90,-128 110,-131 90,-131 110,-134 90,-134 110,-138 90,-137 110,-141 90,-141 110,-144 90,-144 110,-147 90,-147 110,-150 100,-150 100,-140 100,-160 103,-140 103,-160 106,-140 106,-160 109,-140 109,-160 113,-140 112,-160 116,-140 116,-160 119,-140 119,-160 122,-140 122,-160 125,-140 125,-160 128,-140 128,-160 131,-140 131,-150 124,-143 138,-157 127,-140 141,-154 130,-137 138,-144 128,-144 148,-144 128,-141 148,-141 128,-137 148,-138 128,-134 148,-134 128,-131 148,-131 128,-128 148,-128 128,-125 148,-125 128,-122 148,-122 128,-119 148,-119 128,-116 148,-116 128,-112 148,-113 128,-109 148,-109 128,-106 138,-106 130,-113 145,-99 127,-110 141,-96 124,-107 131,-100 131,-110 131,-90 128,-110 128,-90 125,-110 125,-90 122,-110 122,-90 119,-110 119,-90 116,-110 116,-90 112,-110 113,-90 109,-110 109,-90 106,-110 106,-90 103,-110 103,-90 100,-110 100,-100" fill="none" stroke="#5bd658" stroke-width="3" /><path d="M 218,-151 204,-137 215,-154 201,-140 212,-157 205,-150 205,-160 205,-140 202,-160 202,-140 199,-160 199,-140 196,-160 196,-140 192,-160 193,-140 189,-160 189,-140 186,-160 186,-140 183,-160 183,-140 180,-160 180,-150 173,-157 187,-143 170,-154 184,-140 167,-151 174,-144 164,-144 184,-144 164,-141 184,-141 164,-137 184,-138 164,-134 184,-134 164,-131 184,-131 164,-128 184,-128 164,-125 184,-125 164,-122 184,-122 164,-119 184,-119 164,-116 184,-116 164,-112 184,-113 164,-109 184,-109 164,-106 174,-106 167,-99 181,-113 170,-96 184,-110 173,-93 180,-100 180,-90 180,-110 183,-90 183,-110 186,-90 186,-110 189,-90 189,-110 193,-90 192,-110 196,-90 196,-110 199,-90 199,-110 202,-90 202,-110 205,-90 205,-100 212,-93 198,-107 215,-96 201,-110 218,-99 211,-106 221,-106 201,-106 221,-109 201,-109 221,-113 201,-112 221,-116 201,-116 221,-119 201,-119 221,-122 201,-122 221,-125 201,-125 221,-128 201,-128 221,-131 201,-131 221,-134 201,-134 221,-138 201,-137 221,-141 201,-141 221,-144 211,-144" fill="none" stroke="#5bd658" stroke-width="3" /></svg>