<svg version="1.1" xmlns="http://www.w3.org/2000/svg" xmlns:xlink="http://www.w3.org/1999/xlink" xmlns:ev="http://www.w3.org/2001/xml-events" width="520" height="420" viewBox="-10 -410 520 420"><path d="M 0,10 0,-10 3,10 3,-10 6,10 6,-10 9,10 9,-10 12,10 12,-10 15,10 15,-10 18,10 18,-10 21,10 21,-10 24,10 24,-10 27,10 27,-10 30,10 30,-10 33,10 33,-10 36,10 36,-10 39,10 39,-10 42,10 42,-10 45,10 45,-10 48,10 48,-10 51,10 51,-10 54,10 54,-10 57,10 57,-10 60,10 60,-10 63,10 63,-10 66,10 66,-10 69,10 69,-10 72,10 72,-10 75,10 75,-10 78,10 78,-10 81,10 81,-10 84,10 84,-10 87,10 87,-10 90,10 90,-10 93,10 93,-10 96,10 96,-10 99,10 99,-10 102,10 102,-10 105,10 105,-10 108,10 108,-10 111,10 111,-10 114,10 114,-10 117,10 117,-10 120,10 120,-10 123,10 123,-10 127,10 127,-10 130,10 130,-10 133,10 133,-10 136,10 136,-10 139,10 139,-10 142,10 142,-10 145,10 145,-10 148,10 148,-10 151,10 151,-10 154,10 154,-10 157,10 157,-10 160,10 160,-10 163,10 163,-10 166,10 166,-10 169,10 169,-10 172,10 172,-10 175,10 175,-10 178,10 178,-10 181,10 181,-10 184,10 184,-10 187,10 187,-10 190,10 190,-10 193,10 193,-10 196,10 196,-10 199,10 199,-10 202,10 202,-10 205,10 205,-10 208,10 208,-10 211,10 211,-10 214,10 214,-10 217,10 217,-10 220,10 220,-10 223,10 223,-10 226,10 226,-10 229,10 229,-10 232,10 232,-10 235,10 235,-10 238,10 238,-10 241,10 241,-10 244,10 244,-10 247,10 247,-10 250,10 250,-10 253,10 253,-10 256,10 256,-10 259,10 259,-10 262,10 262,-10 265,10 265,-10 268,10 268,-10 271,10 271,-10 274,10 274,-10 277,10 277,-10 280,10 280,-10 283,10 283,-10 286,10 286,-10 289,10 289,-10 292,10 292,-10 295,10 295,-10 298,10 298,-10 301,10 301,-10 304,10 304,-10 307,10 307,-10 310,10 310,-10 313,10 313,-10 316,10 316,-10 319,10 319,-10 322,10 322,-10 325,10 325,-10 328,10 328,-10 331,10 331,-10 334,10 334,-10 337,10 337,-10 340,10 340,-10 343,10 343,-10 346,10 346,-10 349,10 349,-10 352,10 352,-10 355,10 355,-10 358,10 358,-10 361,10 361,-10 364,10 364,-10 367,10 367,-10 370,10 370,-10 373,10 373,-10 377,10 377,-10 380,10 380,-10 383,10 383,-10 386,10 386,-10 389,10 389,-10 392,10 392,-10 395,10 395,-10 398,10 398,-10 401,10 401,-10 404,10 404,-10 407,10 407,-10 410,10 410,-10 413,10 413,-10 416,10 416,-10 419,10 419,-10 422,10 422,-10 425,10 425,-10 428,10 428,-10 431,10 431,-10 434,10 434,-10 437,10 437,-10 440,10 440,-10 443,10 443,-10 446,10 446,-10 449,10 449,-10 452,10 452,-10 455,10 455,-10 458,10 458,-10 461,10 461,-10 464,10 464,-10 467,10 467,-10 470,10 470,-10 473,10 473,-10 476,10 476,-10 479,10 479,-10 482,10 482,-10 485,10 485,-10 488,10 488,-10 491,10 491,-10 494,10 494,-10 497,10 497,-10 500,10 500,0 510,0 490,0 510,-3 490,-3 510,-6 490,-6 510,-9 490,-9 510,-12 490,-12 510,-15 490,-15 510,-18 490,-18 510,-21 490,-21 510,-24 490,-24 510,-27 490,-27 510,-30 490,-30 510,-33 490,-33 510,-36 490,-36 510,-39 490,-39 510,-42 490,-42 510,-45 490,-45 510,-48 490,-48 510,-51 490,-51 510,-54 490,-54 510,-57 490,-57 510,-60 490,-60 510,-63 490,-63 510,-66 490,-66 510,-69 490,-69 510,-72 490,-72 510,-75 490,-75 510,-78 490,-78 510,-81 490,-81 510,-84 490,-84 510,-87 490,-87 510,-90 490,-90 510,-93 490,-93 510,-96 490,-96 510,-99 490,-99 510,-102 490,-102 510,-105 490,-105 510,-108 490,-108 510,-111 490,-111 510,-114 490,-114 510,-117 490,-117 510,-120 490,-120 510,-123 490,-123 510,-126 490,-126 510,-129 490,-129 510,-132 490,-132 510,-135 490,-135 510,-138 490,-138 510,-141 490,-141 510,-144 490,-144 510,-147 490,-147 510,-150 490,-150 510,-153 490,-153 510,-156 490,-156 510,-159 490,-159 510,-162 490,-162 510,-165 490,-165 510,-168 490,-168 510,-171 490,-171 510,-174 490,-174 510,-177 490,-177 510,-180 490,-180 510,-183 490,-183 510,-186 490,-186 510,-189 490,-189 510,-192 490,-192 510,-195 490,-195 510,-198 490,-198 510,-202 490,-202 510,-205 490,-205 510,-208 490,-208 510,-211 490,-211 510,-214 490,-214 510,-217 490,-217 510,-220 490,-220 510,-223 490,-223 510,-226 490,-226 510,-229 490,-229 510,-232 490,-232 510,-235 490,-235 510,-238 490,-238 510,-241 490,-241 510,-244 490,-244 510,-247 490,-247 510,-250 490,-250 510,-253 490,-253 510,-256 490,-256 510,-259 490,-259 510,-262 490,-262 510,-265 490,-265 510,-268 490,-268 510,-271 490,-271 510,-274 490,-274 510,-277 490,-277 510,-280 490,-280 510,-283 490,-283 510,-286 490,-286 510,-289 490,-289 510,-292 490,-292 510,-295 490,-295 510,-298 490,-298 510,-301 490,-301 510,-304 490,-304 510,-307 490,-307 510,-310 490,-310 510,-313 490,-313 510,-316 490,-316 510,-319 490,-319 510,-322 490,-322 510,-325 490,-325 510,-328 490,-328 510,-331 490,-331 510,-334 490,-334 510,-337 490,-337 510,-340 490,-340 510,-343 490,-343 510,-346 490,-346 510,-349 490,-349 510,-352 490,-352 510,-355 490,-355 510,-358 490,-358 510,-361 490,-361 510,-364 490,-364 510,-367 490,-367 510,-370 490,-370 510,-373 490,-373 510,-376 490,-376 510,-379 490,-379 510,-382 490,-382 510,-385 490,-385 510,-388 490,-388 510,-391 490,-391 510,-394 490,-394 510,-397 490,-397 510,-400 500,-400 500,-410 500,-390 497,-410 497,-390 494,-410 494,-390 491,-410 491,-390 488,-410 488,-390 485,-410 485,-390 482,-410 482,-390 479,-410 479,-390 476,-410 476,-390 473,-410 473,-390 470,-410 470,-390 467,-410 467,-390 464,-410 464,-390 461,-410 461,-390 458,-410 458,-390 455,-410 455,-390 452,-410 452,-390 449,-410 449,-390 446,-410 446,-390 443,-410 443,-390 440,-410 440,-390 437,-410 437,-390 434,-410 434,-390 431,-410 431,-390 428,-410 428,-390 425,-410 425,-390 422,-410 422,-390 419,-410 419,-390 416,-410 416,-390 413,-410 413,-390 410,-410 410,-390 407,-410 407,-390 404,-410 404,-390 401,-410 401,-390 398,-410 398,-390 395,-410 395,-390 392,-410 392,-390 389,-410 389,-390 386,-410 386,-390 383,-410 383,-390 380,-410 380,-390 377,-410 377,-390 373,-410 373,-390 370,-410 370,-390 367,-410 367,-390 364,-410 364,-390 361,-410 361,-390 358,-410 358,-390 355,-410 355,-390 352,-410 352,-390 349,-410 349,-390 346,-410 346,-390 343,-410 343,-390 340,-410 340,-390 337,-410 337,-390 334,-410 334,-390 331,-410 331,-390 328,-410 328,-390 325,-410 325,-390 322,-410 322,-390 319,-410 319,-390 316,-410 316,-390 313,-410 313,-390 310,-410 310,-390 307,-410 307,-390 304,-410 304,-390 301,-410 301,-390 298,-410 298,-390 295,-410 295,-390 292,-410 292,-390 289,-410 289,-390 286,-410 286,-390 283,-410 283,-390 280,-410 280,-390 277,-410 277,-390 274,-410 274,-390 271,-410 271,-390 268,-410 268,-390 265,-410 265,-390 262,-410 262,-390 259,-410 259,-390 256,-410 256,-390 253,-410 253,-390 250,-410 250,-390 247,-410 247,-390 244,-410 244,-390 241,-410 241,-390 238,-410 238,-390 235,-410 235,-390 232,-410 232,-390 229,-410 229,-390 226,-410 226,-390 223,-410 223,-390 220,-410 220,-390 217,-410 217,-390 214,-410 214,-390 211,-410 211,-390 208,-410 208,-390 205,-410 205,-390 202,-410 202,-390 199,-410 199,-390 196,-410 196,-390 193,-410 193,-390 190,-410 190,-390 187,-410 187,-390 184,-410 184,-390 181,-410 181,-390 178,-410 178,-390 175,-410 175,-390 172,-410 172,-390 169,-410 169,-390 166,-410 166,-390 163,-410 163,-390 160,-410 160,-390 157,-410 157,-390 154,-410 154,-390 151,-410 151,-390 148,-410 148,-390 145,-410 145,-390 142,-410 142,-390 139,-410 139,-390 136,-410 136,-390 133,-410 133,-390 130,-410 130,-390 127,-410 127,-390 123,-410 123,-390 120,-410 120,-390 117,-410 117,-390 114,-410 114,-390 111,-410 111,-390 108,-410 108,-390 105,-410 105,-390 102,-410 102,-390 99,-410 99,-390 96,-410 96,-390 93,-410 93,-390 90,-410 90,-390 87,-410 87,-390 84,-410 84,-390 81,-410 81,-390 78,-410 78,-390 75,-410 75,-390 72,-410 72,-390 69,-410 69,-390 66,-410 66,-390 63,-410 63,-390 60,-410 60,-390 57,-410 57,-390 54,-410 54,-390 51,-410 51,-390 48,-410 48,-390 45,-410 45,-390 42,-410 42,-390 39,-410 39,-390 36,-410 36,-390 33,-410 33,-390 30,-410 30,-390 27,-410 27,-390 24,-410 24,-390 21,-410 21,-390 18,-410 18,-390 15,-410 15,-390 12,-410 12,-390 9,-410 9,-390 6,-410 6,-390 3,-410 3,-390 0,-410 0,-400 -10,-400 10,-400 -10,-397 10,-397 -10,-394 10,-394 -10,-391 10,-391 -10,-388 10,-388 -10,-385 10,-385 -10,-382 10,-382 -10,-379 10,-379 -10,-376 10,-376 -10,-373 10,-373 -10,-370 10,-370 -10,-367 10,-367 -10,-364 10,-364 -10,-361 10,-361 -10,-358 10,-358 -10,-355 10,-355 -10,-352 10,-352 -10,-349 10,-349 -10,-346 10,-346 -10,-343 10,-343 -10,-340 10,-340 -10,-337 10,-337 -10,-334 10,-334 -10,-331 10,-331 -10,-328 10,-328 -10,-325 10,-325 -10,-322 10,-322 -10,-319 10,-319 -10,-316 10,-316 -10,-313 10,-313 -10,-310 10,-310 -10,-307 10,-307 -10,-304 10,-304 -10,-301 10,-301 -10,-298 10,-298 -10,-295 10,-295 -10,-292 10,-292 -10,-289 10,-289 -10,-286 10,-286 -10,-283 10,-283 -10,-280 10,-280 -10,-277 10,-277 -10,-274 10,-274 -10,-271 10,-271 -10,-268 10,-268 -10,-265 10,-265 -10,-262 10,-262 -10,-259 10,-259 -10,-256 10,-256 -10,-253 10,-253 -10,-250 10,-250 -10,-247 10,-247 -10,-244 10,-244 -10,-241 10,-241 -10,-238 10,-238 -10,-235 10,-235 -10,-232 10,-232 -10,-229 10,-229 -10,-226 10,-226 -10,-223 10,-223 -10,-220 10,-220 -10,-217 10,-217 -10,-214 10,-214 -10,-211 10,-211 -10,-208 10,-208 -10,-205 10,-205 -10,-202 10,-202 -10,-198 10,-198 -10,-195 10,-195 -10,-192 10,-192 -10,-189 10,-189 -10,-186 10,-186 -10,-183 10,-183 -10,-180 10,-180 -10,-177 10,-177 -10,-174 10,-174 -10,-171 10,-171 -10,-168 10,-168 -10,-165 10,-165 -10,-162 10,-162 -10,-159 10,-159 -10,-156 10,-156 -10,-153 10,-153 -10,-150 10,-150 -10,-147 10,-147 -10,-144 10,-144 -10,-141 10,-141 -10,-138 10,-138 -10,-135 10,-135 -10,-132 10,-132 -10,-129 10,-129 -10,-126 10,-126 -10,-123 10,-123 -10,-120 10,-120 -10,-117 10,-117 -10,-114 10,-114 -10,-111 10,-111 -10,-108 10,-108 -10,-105 10,-105 -10,-102 10,-102 -10,-99 10,-99 -10,-96 10,-96 -10,-93 10,-93 -10,-90 10,-90 -10,-87 10,-87 -10,-84 10,-84 -10,-81 10,-81 -10,-78 10,-78 -10,-75 10,-75 -10,-72 10,-72 -10,-69 10,-69 -10,-66 10,-66 -10,-63 10,-63 -10,-60 10,-60 -10,-57 10,-57 -10,-54 10,-54 -10,-51 10,-51 -10,-48 10,-48 -10,-45 10,-45 -10,-42 10,-42 -10,-39 10,-39 -10,-36 10,-36 -10,-33 10,-33 -10,-30 10,-30 -10,-27 10,-27 -10,-24 10,-24 -10,-21 10,-21 -10,-18 10,-18 -10,-15 10,-15 -10,-12 10,-12 -10,-9 10,-9 -10,-6 10,-6 -10,-3 10,-3 -10,0 0,0 0,0" fill="none" stroke="#842ec0" stroke-width="3" /><path d="M 10,5 10,-5 14,5 14,-5 18,5 18,0 18,5 18,-5 22,4 22,-6 26,4 26,-1 27,4 26,-6 31,4 30,-6 35,3 34,-1 35,3 34,-6 39,3 38,-7 43,2 43,-3 44,2 41,-8 48,0 45,-9 52,-1 51,-6 54,-2 48,-10 56,-4 50,-12 59,-6 53,-14 62,-8 59,-12 63,-9 55,-15 65,-12 57,-18 67,-15 59,-21 69,-18 61,-24 71,-21 67,-24 72,-22 62,-25 73,-25 63,-28 74,-28 64,-31 75,-31 65,-34 76,-34 66,-37 77,-37 67,-40 78,-40 68,-43 79,-43 69,-46 80,-46 75,-48 80,-47 70,-48 81,-50 71,-51 81,-53 71,-54 82,-56 72,-57 82,-59 72,-60 83,-61 73,-63 83,-64 73,-66 84,-67 74,-69 84,-70 74,-72 85,-73 75,-75 85,-76 75,-78 86,-79 76,-81 86,-82 76,-84 87,-85 77,-87 87,-88 77,-90 88,-91 78,-93 88,-94 83,-95 88,-95 78,-95 88,-98 79,-98 89,-101 79,-102 89,-104 79,-105 89,-107 79,-108 90,-110 80,-111 90,-113 80,-114 90,-116 80,-117 90,-119 80,-120 91,-122 81,-123 91,-125 81,-126 91,-128 81,-129 91,-131 81,-132 92,-134 82,-135 92,-137 82,-138 92,-141 82,-141 92,-144 82,-144 93,-147 83,-148 93,-150 83,-151 93,-153 83,-154 93,-156 83,-157 94,-159 84,-160 94,-162 84,-163 94,-165 84,-166 95,-168 85,-169 95,-171 85,-172 95,-174 85,-175 95,-177 85,-178 96,-180 86,-181 96,-183 86,-184 96,-187 86,-187 96,-190 91,-190 96,-190 86,-190 96,-193 86,-193 97,-196 87,-196 97,-199 87,-199 97,-202 87,-202 97,-205 87,-205 97,-208 87,-208 97,-211 87,-211 97,-214 87,-214 98,-217 88,-217 98,-220 88,-220 98,-223 88,-223 98,-226 88,-226 98,-229 88,-229 98,-232 88,-232 98,-235 88,-235 98,-238 88,-238 99,-241 89,-241 99,-244 89,-244 99,-247 89,-248 99,-250 89,-251 99,-253 89,-254 99,-256 89,-257 99,-259 89,-260 99,-262 89,-263 100,-265 90,-266 100,-268 90,-269 100,-271 90,-272 100,-274 90,-275 100,-277 90,-278 100,-280 90,-281 100,-283 90,-284 100,-286 90,-287 101,-289 91,-290 101,-292 91,-293 101,-295 91,-296 101,-298 91,-299 101,-301 91,-302 101,-304 91,-305 101,-307 91,-308 102,-310 92,-311 102,-313 92,-314 102,-316 92,-317 102,-319 92,-320 102,-322 92,-323 102,-326 92,-326 102,-329 92,-329 102,-332 92,-332 103,-335 93,-335 103,-338 93,-338 103,-341 93,-341 103,-344 93,-344 103,-347 93,-347 103,-350 93,-350 103,-353 93,-353 103,-356 93,-356 104,-359 94,-359 104,-362 94,-362 104,-365 94,-365 104,-368 94,-368 104,-371 94,-371 104,-374 94,-374 104,-377 94,-377 104,-380 99,-380 94,-380 104,-380 95,-377 105,-377 95,-374 105,-374 95,-371 105,-371 95,-368 105,-368 95,-365 105,-365 95,-362 105,-362 95,-359 105,-359 95,-356 105,-356 95,-353 105,-353 95,-350 105,-350 95,-347 105,-347 95,-344 105,-344 95,-341 105,-341 95,-338 105,-338 95,-335 105,-335 96,-332 106,-332 96,-329 106,-329 96,-326 106,-326 96,-323 106,-323 96,-320 106,-320 96,-317 106,-317 96,-314 106,-314 96,-311 106,-311 96,-308 106,-308 96,-305 106,-305 96,-302 106,-302 96,-299 106,-299 96,-296 106,-296 96,-293 106,-293 96,-290 106,-290 96,-287 106,-287 97,-284 107,-284 97,-280 107,-281 97,-277 107,-278 97,-274 107,-275 97,-271 107,-272 97,-268 107,-269 97,-265 107,-266 97,-262 107,-263 97,-259 107,-260 97,-256 107,-257 97,-253 107,-254 97,-250 107,-251 97,-247 107,-248 97,-244 107,-245 97,-241 107,-242 98,-238 108,-239 98,-235 108,-236 98,-232 108,-233 98,-229 108,-229 98,-226 108,-226 98,-223 108,-223 98,-220 108,-220 98,-217 108,-217 98,-214 108,-214 98,-211 108,-211 98,-208 108,-208 98,-205 108,-205 98,-202 108,-202 98,-199 108,-199 98,-196 108,-196 98,-193 108,-193 99,-190 109,-190 99,-187 109,-187 99,-184 109,-184 99,-181 109,-181 99,-178 109,-178 99,-175 109,-175 99,-172 109,-172 99,-169 109,-169 99,-166 109,-166 99,-163 109,-163 99,-160 109,-160 99,-157 109,-157 99,-154 109,-154 99,-151 109,-151 99,-148 109,-148 100,-145 110,-145 100,-142 110,-142 100,-139 110,-139 100,-136 110,-136 100,-133 110,-133 100,-130 110,-130 100,-127 110,-127 100,-124 110,-124 100,-121 110,-121 100,-118 110,-118 100,-115 110,-115 100,-112 110,-112 100,-109 110,-109 100,-106 110,-106 100,-103 110,-103 100,-100 110,-100 101,-97 111,-97 101,-94 111,-94 101,-91 111,-91 101,-88 111,-88 101,-85 111,-85 101,-82 111,-82 101,-79 111,-79 101,-76 111,-76 101,-73 111,-73 101,-70 111,-70 101,-67 111,-67 101,-64 111,-64 101,-61 111,-61 101,-58 111,-58 101,-55 111,-55 102,-52 112,-52 102,-49 112,-49 102,-46 112,-46 102,-43 112,-43 102,-40 112,-40 102,-37 112,-37 102,-33 112,-34 102,-30 112,-31 102,-27 112,-28 102,-24 112,-25 102,-21 112,-22 102,-18 112,-19 102,-15 112,-16 102,-12 112,-13 102,-9 112,-10 102,-6 112,-7 103,-3 113,-4 103,0 108,0 109,4 107,-5 113,3 111,-6 117,3 116,-2 120,1 112,-6 122,-1 114,-8 124,-4 116,-10 126,-6 118,-13 128,-8 124,-12 129,-11 119,-12 129,-14 120,-16 130,-17 120,-19 130,-20 121,-22 131,-23 121,-25 132,-26 122,-28 132,-29 122,-31 133,-32 123,-34 133,-35 123,-37 134,-39 124,-40 134,-42 124,-43 135,-45 125,-46 135,-48 125,-50 136,-51 126,-53 136,-54 127,-56 137,-57 132,-58 137,-58 127,-58 137,-61 127,-61 137,-64 127,-64 137,-67 127,-67 137,-70 127,-70 138,-73 128,-73 138,-76 128,-76 138,-79 128,-79 138,-82 128,-82 138,-85 128,-85 138,-88 128,-88 138,-91 128,-91 138,-94 128,-94 138,-97 128,-97 139,-100 129,-100 139,-103 129,-103 139,-106 129,-106 139,-109 129,-109 139,-112 129,-112 139,-115 129,-115 139,-118 129,-118 139,-121 129,-121 139,-124 129,-124 139,-127 129,-127 140,-130 130,-130 140,-133 130,-133 140,-136 130,-136 140,-139 130,-139 140,-142 130,-142 140,-145 130,-146 140,-148 130,-149 140,-151 130,-152 140,-154 130,-155 141,-157 131,-158 141,-160 131,-161 141,-163 131,-164 141,-166 131,-167 141,-169 131,-170 141,-172 131,-173 141,-175 131,-176 141,-178 131,-179 141,-181 131,-182 141,-184 131,-185 142,-187 132,-188 142,-190 132,-191 142,-193 132,-194 142,-196 132,-197 142,-199 132,-200 142,-202 132,-203 142,-205 132,-206 142,-208 132,-209 142,-211 132,-212 143,-214 133,-215 143,-217 133,-218 143,-220 133,-221 143,-223 133,-224 143,-226 133,-227 143,-229 133,-230 143,-233 133,-233 143,-236 133,-236 143,-239 133,-239 143,-242 133,-242 144,-245 134,-245 144,-248 134,-248 144,-251 134,-251 144,-254 134,-254 144,-257 134,-257 144,-260 134,-260 144,-263 134,-263 144,-266 134,-266 144,-269 134,-269 145,-272 135,-272 145,-275 135,-275 145,-278 135,-278 145,-281 135,-281 145,-284 135,-284 145,-287 135,-287 145,-290 140,-290 135,-290 145,-290 135,-287 145,-287 135,-284 145,-284 135,-281 145,-281 136,-278 146,-278 136,-275 146,-275 136,-272 146,-272 136,-269 146,-269 136,-266 146,-266 136,-263 146,-263 136,-260 146,-260 136,-257 146,-257 136,-254 146,-254 136,-251 146,-251 136,-248 146,-248 136,-245 146,-245 137,-242 147,-242 137,-238 147,-239 137,-235 147,-236 137,-232 147,-233 137,-229 147,-230 137,-226 147,-227 137,-223 147,-224 137,-220 147,-221 137,-217 147,-218 137,-214 147,-215 137,-211 147,-212 137,-208 147,-209 138,-205 148,-206 138,-202 148,-203 138,-199 148,-200 138,-196 148,-197 138,-193 148,-194 138,-190 148,-190 138,-187 148,-187 138,-184 148,-184 138,-181 148,-181 138,-178 148,-178 138,-175 148,-175 138,-172 148,-172 139,-169 149,-169 139,-166 149,-166 139,-163 149,-163 139,-160 149,-160 139,-157 149,-157 139,-154 149,-154 139,-151 149,-151 139,-148 149,-148 139,-145 149,-145 139,-142 149,-142 139,-139 149,-139 139,-136 149,-136 140,-133 150,-133 140,-130 150,-130 140,-127 150,-127 140,-124 150,-124 140,-121 150,-121 140,-118 150,-118 140,-115 150,-115 140,-112 150,-112 140,-109 150,-109 140,-106 150,-106 140,-103 150,-103 141,-100 151,-100 141,-97 151,-97 141,-94 151,-94 141,-91 151,-91 141,-88 151,-88 141,-85 151,-85 141,-82 151,-82 141,-79 151,-79 141,-76 151,-76 141,-73 151,-73 141,-70 151,-70 141,-67 151,-67 142,-63 152,-64 142,-60 152,-61 142,-57 152,-58 142,-54 152,-55 142,-51 152,-52 142,-48 152,-49 142,-45 152,-46 142,-42 152,-43 142,-39 152,-40 142,-36 152,-37 142,-33 152,-34 142,-30 152,-31 143,-27 153,-28 143,-24 153,-25 143,-21 153,-22 143,-18 153,-19 143,-15 153,-16 143,-12 153,-12 143,-9 153,-9 143,-6 153,-6 143,-3 153,-3 143,0 148,0 149,5 148,-5 153,4 152,-6 157,4 156,-1 157,4 155,-6 162,3 160,-7 166,2 165,-3 167,2 162,-7 170,0 165,-8 173,-2 167,-10 175,-3 173,-8 177,-5 168,-10 179,-8 170,-13 180,-11 172,-16 182,-14 173,-19 184,-17 175,-22 185,-20 181,-23 186,-22 176,-23 186,-25 176,-26 187,-28 177,-29 187,-31 178,-32 188,-34 178,-35 188,-37 179,-38 189,-40 179,-41 190,-43 180,-44 190,-46 180,-47 191,-49 181,-50 191,-52 181,-53 192,-55 182,-56 192,-58 182,-60 193,-61 183,-63 193,-64 184,-66 194,-67 189,-68 194,-67 184,-68 194,-70 184,-71 194,-73 184,-74 195,-76 185,-77 195,-79 185,-80 195,-82 185,-83 195,-85 185,-86 195,-88 185,-89 195,-91 185,-92 196,-94 186,-95 196,-97 186,-98 196,-100 186,-101 196,-103 186,-104 196,-106 186,-107 197,-109 187,-110 197,-112 187,-113 197,-115 187,-116 197,-118 187,-119 197,-121 187,-122 197,-124 187,-125 198,-127 188,-128 198,-130 188,-131 198,-133 188,-134 198,-136 188,-137 198,-139 188,-140 198,-142 189,-143 199,-145 189,-146 199,-148 189,-149 199,-151 189,-152 199,-155 189,-155 199,-158 189,-158 200,-161 190,-161 200,-164 190,-164 200,-167 190,-167 200,-170 190,-170 200,-173 190,-173 200,-176 191,-176 201,-179 191,-179 201,-182 191,-182 201,-185 191,-185 201,-188 191,-188 201,-191 191,-191 202,-194 192,-194 202,-197 192,-197 202,-200 192,-200 202,-203 197,-203 192,-203 202,-203 192,-200 202,-200 192,-197 202,-197 193,-194 202,-194 193,-191 203,-191 193,-188 203,-188 193,-185 203,-185 193,-182 203,-182 193,-178 203,-179 193,-175 203,-176 193,-172 203,-173 194,-169 204,-170 194,-166 204,-167 194,-163 204,-164 194,-160 204,-161 194,-157 204,-158 194,-154 204,-155 194,-151 204,-152 194,-148 204,-149 195,-145 205,-146 195,-142 205,-143 195,-139 205,-140 195,-136 205,-137 195,-133 205,-134 195,-130 205,-130 195,-127 205,-127 195,-124 205,-124 196,-121 206,-121 196,-118 206,-118 196,-115 206,-115 196,-112 206,-112 196,-109 206,-109 196,-106 206,-106 196,-103 206,-103 196,-100 206,-100 197,-97 207,-97 197,-94 207,-94 197,-91 207,-91 197,-88 207,-88 197,-85 207,-85 197,-82 207,-82 197,-79 207,-79 197,-76 207,-76 198,-73 208,-73 198,-70 208,-70 198,-67 208,-67 198,-64 208,-64 198,-60 208,-61 198,-57 208,-58 198,-54 208,-55 198,-51 208,-52 199,-48 209,-49 199,-45 209,-46 199,-42 209,-43 199,-39 209,-40 199,-36 209,-37 199,-33 209,-34 199,-30 209,-31 199,-27 209,-28 200,-24 210,-25 200,-21 210,-22 200,-18 210,-19 200,-15 210,-16 200,-12 210,-13 200,-9 205,-9 209,-6 201,-13 211,-8 204,-15 213,-11 206,-17 215,-13 208,-20 217,-15 213,-19 217,-15 210,-22 219,-18 212,-24 221,-20 214,-26 223,-22 216,-29 225,-25 222,-28 225,-25 218,-31 227,-27 220,-33 229,-29 222,-36 231,-31 224,-38 233,-34 230,-37 233,-34 226,-40 235,-36 228,-43 237,-38 230,-45 240,-41 232,-47 242,-43 238,-46 242,-43 234,-50 244,-45 236,-52 246,-48 238,-54 248,-50 240,-57 250,-52 246,-56 250,-52 242,-59 252,-55 244,-61 254,-57 246,-64 256,-59 248,-66 258,-62 254,-65 258,-62 250,-68 260,-64 252,-71 262,-66 254,-73 264,-69 256,-75 266,-71 262,-74 266,-71 258,-78 268,-73 260,-80 270,-76 263,-82 272,-78 265,-84 274,-80 270,-83 274,-80 267,-87 276,-83 269,-89 278,-85 271,-91 280,-87 273,-94 282,-89 278,-93 282,-89 275,-96 284,-92 277,-98 286,-94 279,-101 288,-96 281,-103 290,-99 287,-102 290,-99 283,-105 292,-101 285,-108 294,-103 287,-110 296,-106 289,-112 299,-108 295,-111 299,-108 291,-115 301,-110 293,-117 303,-113 295,-119 305,-115 297,-122 307,-117 303,-121 307,-117 299,-124 309,-120 301,-126 311,-122 303,-129 313,-124 305,-131 315,-127 311,-130 315,-127 307,-133 317,-129 309,-135 319,-131 311,-138 321,-134 313,-140 323,-136 319,-139 323,-136 315,-142 325,-138 317,-145 327,-141 319,-147 329,-143 321,-149 331,-145 327,-148 331,-145 324,-152 333,-147 326,-154 335,-150 328,-156 337,-152 330,-159 339,-154 335,-158 339,-154 332,-161 341,-157 334,-163 343,-159 336,-166 345,-161 338,-168 347,-164 344,-167 347,-164 340,-170 349,-166 342,-173 351,-168 344,-175 353,-171 346,-177 355,-173 352,-176 355,-173 348,-180 357,-175 350,-182 360,-178 352,-184 362,-180 354,-187 364,-182 360,-186 364,-182 356,-189 366,-185 358,-191 368,-187 360,-193 370,-189 362,-196 372,-192 368,-195 372,-192 364,-198 374,-194 366,-200 376,-196 368,-203 378,-198 370,-205 380,-201 376,-204 380,-201 372,-207 382,-203 374,-210 384,-205 376,-212 386,-208 378,-214 388,-210 384,-213 388,-210 380,-217 390,-212 383,-219 392,-215 385,-221 394,-217 387,-224 396,-219 392,-223 396,-219 389,-226 398,-222 391,-228 400,-224 393,-231 402,-226 395,-233 404,-229 401,-232 404,-229 397,-235 406,-231 399,-238 408,-233 401,-240 410,-236 403,-242 412,-238 409,-241 412,-238 405,-245 414,-240 407,-247 416,-243 409,-249 419,-245 411,-251 421,-247 417,-250 421,-247 413,-254 423,-250 415,-256 425,-252 417,-258 427,-254 419,-261 429,-256 425,-260 429,-256 421,-263 431,-259 423,-265 433,-261 425,-268 435,-263 427,-270 437,-266 433,-269 437,-266 429,-272 439,-268 431,-275 441,-270 433,-277 443,-273 435,-279 445,-275 441,-278 445,-275 437,-282 447,-277 439,-284 449,-280 441,-286 451,-282 444,-289 453,-284 449,-288 453,-284 446,-291 455,-287 448,-293 457,-289 450,-296 459,-291 452,-298 461,-294 457,-297 461,-294 454,-300 463,-296 456,-302 465,-298 458,-305 467,-301 460,-307 469,-303 466,-306 469,-303 462,-309 471,-305 464,-312 473,-307 466,-314 475,-310 468,-316 477,-312 474,-315 477,-312 470,-319 480,-314 472,-321 482,-317 474,-323 484,-319 476,-326 486,-321 482,-325" fill="none" stroke="#842ec0" stroke-width="3" /><path d="M 166,-333 174,-340 170,-330 177,-337 173,-326 176,-330 176,-325 176,-335 179,-325 179,-335 182,-325 182,-335 186,-325 186,-335 189,-325 189,-335 192,-325 192,-335 195,-325 195,-335 198,-325 198,-335 201,-325 201,-330 205,-326 198,-334 208,-330 201,-337 211,-333 208,-336 213,-336 203,-336 213,-339 203,-339 213,-342 203,-342 213,-346 203,-346 213,-349 208,-349 212,-351 203,-346 210,-354 201,-349 208,-358 204,-355 204,-360 204,-350 201,-360 201,-350 198,-360 198,-350 194,-360 194,-350 191,-360 191,-350 188,-360 188,-350 185,-360 185,-350 182,-360 182,-350 179,-360 179,-355 182,-359 175,-351 179,-362 172,-355 176,-365 173,-361 178,-361 168,-361 178,-364 168,-364 178,-367 168,-367 178,-371 168,-371 178,-374 173,-374 176,-370 169,-377 179,-373 172,-380 182,-376 179,-380 179,-375 179,-385 182,-375 182,-385 185,-375 185,-385 188,-375 188,-385 191,-375 191,-385 194,-375 194,-385 197,-375 197,-385 201,-375 201,-385 204,-375 204,-380 200,-376 207,-384 203,-373 210,-380 206,-370 210,-374" fill="none" stroke="#842ec0" stroke-width="3" /><path d="M 245,-330 235,-330 245,-333 235,-333 245,-336 235,-336 245,-339 235,-339 245,-342 235,-342 245,-346 235,-346 245,-349 235,-349 245,-352 235,-352 245,-355 235,-355 245,-358 235,-358 245,-361 235,-361 245,-364 235,-364 245,-367 235,-367 245,-371 235,-371 245,-374 235,-374 245,-377 235,-377 245,-380 240,-380 240,-375 240,-385 243,-375 243,-385 246,-375 246,-385 249,-375 249,-385 252,-375 252,-385 256,-375 256,-385 259,-375 259,-385 262,-375 262,-385 265,-375 265,-385 268,-375 268,-385 271,-375 271,-380 268,-376 275,-384 271,-373 278,-380 274,-370 278,-374 273,-374 283,-374 273,-371 283,-371 273,-368 283,-368 273,-364 283,-364 273,-361 278,-361 274,-365 281,-358 271,-362 278,-355 268,-359 271,-355 271,-360 271,-350 268,-360 268,-350 265,-360 265,-350 262,-360 262,-350 259,-360 259,-350 256,-360 256,-350 253,-360 253,-350 249,-360 249,-350 246,-360 246,-350 243,-360 243,-350 240,-360 240,-355 240,-350 240,-360 243,-350 243,-360 246,-350 246,-360 249,-350 249,-360 252,-350 252,-360 256,-350 256,-360 259,-350 259,-360 262,-350 262,-360 265,-350 265,-360 268,-350 268,-360 271,-350 271,-355 268,-351 275,-359 271,-348 278,-355 274,-345 278,-349 273,-349 283,-349 273,-346 283,-346 273,-343 283,-343 273,-339 283,-339 273,-336 278,-336 274,-340 281,-333 271,-337 278,-330 268,-334 271,-330 271,-335 271,-325 268,-335 268,-325 265,-335 265,-325 262,-335 262,-325 259,-335 259,-325 256,-335 256,-325 253,-335 253,-325 249,-335 249,-325 246,-335 246,-325 243,-335 243,-325 240,-335 240,-330" fill="none" stroke="#842ec0" stroke-width="3" /><path d="M 303,-380 313,-380 303,-377 313,-377 303,-374 313,-374 303,-371 313,-371 303,-368 313,-368 303,-364 313,-364 303,-361 313,-361 303,-358 313,-358 303,-355 313,-355 303,-352 313,-352 303,-349 313,-349 303,-346 313,-346 303,-343 313,-343 303,-339 313,-339 303,-336 308,-336 304,-333 311,-340 307,-330 314,-337 310,-326 314,-330 314,-325 314,-335 317,-325 317,-335 320,-325 320,-335 323,-325 323,-335 326,-325 326,-335 329,-325 329,-335 332,-325 332,-335 336,-325 336,-335 339,-325 339,-330 342,-326 335,-334 345,-330 338,-337 349,-333 345,-336 350,-336 340,-336 350,-339 340,-339 350,-342 340,-342 350,-346 340,-346 350,-349 340,-349 350,-352 340,-352 350,-355 340,-355 350,-358 340,-358 350,-361 340,-361 350,-364 340,-364 350,-367 340,-367 350,-371 340,-371 350,-374 340,-374 350,-377 340,-377 350,-380 345,-380" fill="none" stroke="#842ec0" stroke-width="3" /><path d="M 416,-371 409,-364 414,-374 406,-366 411,-376 404,-369 409,-379 401,-371 406,-381 399,-374 404,-384 400,-380 400,-385 400,-375 397,-385 397,-375 394,-385 394,-375 391,-385 391,-375 388,-385 388,-375 384,-385 384,-375 381,-385 381,-375 378,-385 378,-375 375,-385 375,-380 371,-384 379,-376 368,-380 375,-373 365,-377 369,-374 364,-374 374,-374 364,-371 374,-371 364,-368 374,-368 364,-364 374,-364 364,-361 374,-361 364,-358 374,-358 364,-355 374,-355 364,-352 374,-352 364,-349 374,-349 364,-346 374,-346 364,-343 374,-343 364,-339 374,-339 364,-336 369,-336 365,-333 372,-340 368,-330 375,-337 371,-326 375,-330 375,-325 375,-335 378,-325 378,-335 381,-325 381,-335 384,-325 384,-335 387,-325 387,-335 391,-325 391,-335 394,-325 394,-335 397,-325 397,-335 400,-325 400,-330 404,-326 396,-334 406,-329 399,-336 409,-331 401,-339 411,-334 404,-341 414,-336 406,-344 416,-339 413,-343" fill="none" stroke="#842ec0" stroke-width="3" /><path d="M 448,-330 438,-330 448,-333 438,-333 448,-336 438,-336 448,-339 438,-339 448,-342 438,-342 448,-346 438,-346 448,-349 438,-349 448,-352 438,-352 448,-355 438,-355 448,-358 438,-358 448,-361 438,-361 448,-364 438,-364 448,-367 438,-367 448,-371 438,-371 448,-374 438,-374 448,-377 438,-377 448,-380 443,-380 438,-380 448,-380 438,-377 448,-377 438,-374 448,-374 438,-371 448,-371 438,-368 448,-368 438,-364 448,-364 438,-361 448,-361 438,-358 448,-358 438,-355 443,-355 446,-351 439,-359 448,-353 442,-361 450,-355 444,-363 453,-357 446,-365 455,-359 449,-367 457,-361 451,-368 460,-363 453,-370 462,-365 455,-372 464,-367 458,-374 466,-368 460,-376 469,-370 462,-378 471,-372 465,-380 473,-374 467,-382 476,-376 473,-380 469,-384 476,-376 467,-382 473,-374 464,-380 471,-372 462,-378 468,-370 459,-376 466,-368 457,-373 463,-366 454,-371 461,-364 452,-369 458,-362 449,-367 456,-359 447,-365 450,-361 446,-358 454,-364 448,-356 456,-362 450,-353 458,-359 452,-351 460,-356 453,-348 462,-354 455,-345 463,-351 457,-343 465,-349 459,-340 467,-346 461,-337 469,-343 463,-335 471,-341 465,-332 473,-338 467,-330 475,-336 468,-327 473,-330" fill="none" stroke="#842ec0" stroke-width="3" /></svg>